<svg width="512" height="512" viewBox="0 0 512 512" fill="none" xmlns="http://www.w3.org/2000/svg">
  <!-- Background Circle with Gradient -->
  <circle cx="256" cy="256" r="256" fill="url(#gradient1)" />

  <!-- Gradient Definitions -->
  <defs>
    <linearGradient id="gradient1" x1="0" y1="0" x2="512" y2="512" gradientUnits="userSpaceOnUse">
      <stop offset="0%" stop-color="#3B82F6" />
      <stop offset="50%" stop-color="#6366F1" />
      <stop offset="100%" stop-color="#8B5CF6" />
    </linearGradient>
    <linearGradient id="gradient2" x1="0" y1="0" x2="1" y2="1">
      <stop offset="0%" stop-color="#FFFFFF" />
      <stop offset="100%" stop-color="#E0E7FF" />
    </linearGradient>
  </defs>

  <!-- Shield Shape -->
  <path
    d="M256 80C256 80 160 100 140 120C120 140 120 240 140 320C160 400 256 432 256 432C256 432 352 400 372 320C392 240 392 140 372 120C352 100 256 80 256 80Z"
    fill="white" opacity="0.95" />

  <!-- Letter "I" -->
  <rect x="238" y="160" width="36" height="192" rx="8" fill="url(#gradient1)" />
  <circle cx="256" cy="140" r="20" fill="url(#gradient1)" />

  <!-- Fingerprint Lines (representing identity) -->
  <path d="M300 200C310 200 320 210 320 220" stroke="url(#gradient1)" stroke-width="8"
    stroke-linecap="round" fill="none" opacity="0.6" />
  <path d="M305 230C315 230 325 240 325 250" stroke="url(#gradient1)" stroke-width="8"
    stroke-linecap="round" fill="none" opacity="0.6" />
  <path d="M310 260C320 260 330 270 330 280" stroke="url(#gradient1)" stroke-width="8"
    stroke-linecap="round" fill="none" opacity="0.6" />

  <path d="M212 200C202 200 192 210 192 220" stroke="url(#gradient1)" stroke-width="8"
    stroke-linecap="round" fill="none" opacity="0.6" />
  <path d="M207 230C197 230 187 240 187 250" stroke="url(#gradient1)" stroke-width="8"
    stroke-linecap="round" fill="none" opacity="0.6" />
  <path d="M202 260C192 260 182 270 182 280" stroke="url(#gradient1)" stroke-width="8"
    stroke-linecap="round" fill="none" opacity="0.6" />

  <!-- Security Checkmark -->
  <circle cx="330" cy="160" r="35" fill="#10B981" opacity="0.95" />
  <path d="M318 160L326 168L342 152" stroke="white" stroke-width="6" stroke-linecap="round"
    stroke-linejoin="round" fill="none" />
</svg>